<svg xmlns="http://www.w3.org/2000/svg" width="41" height="40" viewBox="0 0 41 40" fill="none">
  <path fill-rule="evenodd" clip-rule="evenodd" d="M10.8627 10.0354L20.97 17.1529C19.4441 18.7351 18.5029 20.8909 18.5029 23.2683C18.5029 25.1467 19.0913 26.8861 20.0896 28.3127L17.2171 31.2083C16.957 31.1337 16.6832 31.0925 16.3996 31.0925C15.6092 31.0925 14.868 31.4012 14.3118 31.9586C13.755 32.5165 13.4477 33.2655 13.4477 34.0561C13.4477 34.8475 13.7557 35.5897 14.3118 36.147C14.8713 36.7076 15.6204 37.0001 16.3996 37.0001C17.1842 37.0001 17.9272 36.7149 18.4939 36.147C19.0504 35.5894 19.358 34.8406 19.358 34.0561C19.358 33.8204 19.332 33.5904 19.2759 33.3642L22.183 30.4399C23.6267 31.4767 25.3895 32.0847 27.3028 32.0847C32.16 32.0847 36.0832 28.1386 36.0832 23.2749C36.0832 18.9633 33.0055 15.3742 28.9227 14.6143V11.0986C30.0648 10.5262 30.755 9.39165 30.755 8.09253C30.755 6.21811 29.2565 4.6407 27.3678 4.6407C25.4763 4.6407 24 6.22094 24 8.09253C24 9.39165 24.6903 10.5262 25.8324 11.0986V14.5842C24.9848 14.7291 24.1758 14.9913 23.4254 15.3634C22.6579 14.7857 21.3385 13.8179 19.8242 12.7072L18.681 11.8684C16.6508 10.3782 14.4429 8.75167 12.7925 7.4975C12.8458 7.2548 12.8798 6.99914 12.8798 6.73186C12.8798 4.67214 11.203 3.00008 9.14165 3.00008C7.0856 3.00008 5.4165 4.67338 5.4165 6.73186C5.4165 8.79643 7.08518 10.4701 9.14165 10.4701C9.76695 10.4701 10.3492 10.3053 10.8627 10.0354ZM27.3028 27.4272C25.0119 27.4272 23.1527 25.5653 23.1527 23.2683C23.1527 20.9713 25.0119 19.1095 27.3028 19.1095C29.5937 19.1095 31.4529 20.9713 31.4529 23.2683C31.4529 25.5653 29.5937 27.4272 27.3028 27.4272Z" fill="#EB7A2F"/>
</svg>