<svg xmlns="http://www.w3.org/2000/svg" width="41" height="40" viewBox="0 0 41 40" fill="none">
<path d="M17.4546 10.8618C18.5296 9.74881 20.0263 9.0585 21.6816 9.0585C23.882 9.0585 25.8017 10.2776 26.824 12.0875C27.7125 11.6931 28.6958 11.4737 29.7305 11.4737C33.6991 11.4737 36.9166 14.6985 36.9166 18.6763C36.9166 22.6546 33.6991 25.8794 29.7305 25.8794C29.2551 25.8797 28.7809 25.8327 28.315 25.7392C27.4147 27.3349 25.6991 28.413 23.73 28.413C22.9057 28.413 22.126 28.2238 21.4318 27.8874C20.5192 30.0204 18.3929 31.516 15.9147 31.516C13.334 31.516 11.1345 29.8935 10.2903 27.618C9.92136 27.6958 9.53911 27.7364 9.14688 27.7364C6.07424 27.7364 3.58325 25.2359 3.58325 22.1507C3.58325 20.0833 4.70244 18.2781 6.3653 17.3123C6.02296 16.5296 5.83253 15.6657 5.83253 14.7575C5.83253 11.2095 8.7314 8.33336 12.3069 8.33336C14.4061 8.33336 16.2718 9.3251 17.4546 10.8618Z" fill="#21A7EB"/>
</svg>