<svg width="114" height="30" viewBox="0 0 114 30" fill="none" xmlns="http://www.w3.org/2000/svg">
<g clip-path="url(#clip0_401_25115)">
<path d="M15 30C23.2843 30 30 23.2843 30 15C30 6.71573 23.2843 0 15 0C6.71573 0 0 6.71573 0 15C0 23.2843 6.71573 30 15 30Z" fill="#4A8CFF"/>
<path d="M5.37573 10.3038V17.3529C5.37943 18.1174 5.68652 18.8493 6.22953 19.3875C6.77254 19.9257 7.50702 20.2264 8.27158 20.2233H18.5468C18.6857 20.224 18.8192 20.1696 18.918 20.072C19.0168 19.9743 19.0729 19.8415 19.0739 19.7026V12.6535C19.0702 11.8889 18.7631 11.1571 18.2201 10.6189C17.6771 10.0806 16.9426 9.78 16.178 9.78304H5.906C5.83696 9.78228 5.76844 9.79517 5.70439 9.82095C5.64033 9.84674 5.582 9.88492 5.53273 9.9333C5.48347 9.98168 5.44424 10.0393 5.4173 10.1029C5.39035 10.1665 5.37623 10.2347 5.37573 10.3038ZM19.728 13.0536L23.9701 9.9545C24.3385 9.64904 24.6243 9.72588 24.6243 10.2784V19.728C24.6243 20.3567 24.275 20.2805 23.9701 20.0512L19.728 16.9592V13.0536Z" fill="white"/>
</g>
<path d="M58.9688 15L61.8926 18.3398L65.8242 20.8535L66.5098 15.0234L65.8242 9.31641L61.8164 11.5254L58.9688 15Z" fill="#00832D"/>
<path d="M42 20.3145V25.2832C42 26.4199 42.9199 27.3398 44.0566 27.3398H49.0254L50.0566 23.584L49.0254 20.3145L45.6152 19.2832L42 20.3145Z" fill="#0066DA"/>
<path d="M49.0254 2.66016L42 9.68555L45.6152 10.7168L49.0254 9.68555L50.0391 6.46289L49.0254 2.66016Z" fill="#E94235"/>
<path d="M49.0254 9.68555H42V20.3145H49.0254V9.68555Z" fill="#2684FC"/>
<path d="M70.3184 5.63671L65.8242 9.3164V20.8535L70.3359 24.5508C71.0098 25.0781 72 24.5976 72 23.7363V6.42773C72 5.56054 70.9922 5.08593 70.3184 5.63671ZM58.9688 15V20.3144H49.0254V27.3398H63.7676C64.9043 27.3398 65.8242 26.4199 65.8242 25.2832V20.8535L58.9688 15Z" fill="#00AC47"/>
<path d="M63.7676 2.66016H49.0254V9.68555H58.9688V15L65.8242 9.32227V4.7168C65.8242 3.58008 64.9043 2.66016 63.7676 2.66016Z" fill="#FFBA00"/>
<path d="M99.8462 10.0843C102.222 10.0843 104.148 8.15834 104.148 5.78252C104.148 3.4067 102.222 1.48071 99.8462 1.48071C97.4704 1.48071 95.5444 3.4067 95.5444 5.78252C95.5444 8.15834 97.4704 10.0843 99.8462 10.0843Z" fill="#7B83EB"/>
<path opacity="0.1" d="M99.5393 6.70425H95.6431L95.6624 6.78998L95.6643 6.79735L95.6845 6.87662C95.9677 7.95019 96.6545 8.87289 97.6018 9.45206C98.549 10.0312 99.6834 10.2221 100.768 9.98476V7.93295C100.767 7.60738 100.637 7.29542 100.407 7.0652C100.177 6.83499 99.8649 6.70523 99.5393 6.70425Z" fill="black"/>
<path opacity="0.2" d="M98.6176 7.62601H95.9592C96.3081 8.36159 96.8586 8.98306 97.5466 9.41822C98.2347 9.85338 99.0321 10.0844 99.8462 10.0843V8.8547C99.8453 8.52913 99.7155 8.21717 99.4853 7.98696C99.2551 7.75674 98.9431 7.62698 98.6176 7.62601Z" fill="black"/>
<path d="M109.525 10.3913C111.306 10.3913 112.751 8.94689 112.751 7.16515C112.751 5.38341 111.306 3.93903 109.525 3.93903C107.743 3.93903 106.299 5.38341 106.299 7.16515C106.299 8.94689 107.743 10.3913 109.525 10.3913Z" fill="#5059C9"/>
<path d="M112.29 11.313H105.044C104.888 11.313 104.738 11.3752 104.627 11.4858C104.516 11.5964 104.454 11.7465 104.454 11.9029V19.3783C104.434 20.4602 104.787 21.5161 105.452 22.3692C106.118 23.2224 107.056 23.8208 108.111 24.0645C108.782 24.2054 109.477 24.1948 110.144 24.0334C110.81 23.872 111.433 23.564 111.966 23.1317C112.498 22.6994 112.928 22.1537 113.223 21.5344C113.519 20.9151 113.672 20.2377 113.673 19.5516V12.6956C113.673 12.3289 113.527 11.9773 113.268 11.718C113.008 11.4587 112.657 11.313 112.29 11.313Z" fill="#5059C9"/>
<path d="M107.22 12.6956V21.4523C107.221 23.0751 106.686 24.6528 105.699 25.9405C104.711 27.2283 103.327 28.1542 101.759 28.5744C100.192 28.9946 98.5294 28.8857 97.0301 28.2646C95.5309 27.6435 94.2787 26.5449 93.4677 25.1393C93.2903 24.8445 93.1362 24.5363 93.0068 24.2175C92.8861 23.917 92.7845 23.6091 92.7026 23.2958C92.5506 22.693 92.4733 22.0739 92.4722 21.4523V12.6956C92.4719 12.514 92.5075 12.3341 92.5769 12.1663C92.6463 11.9984 92.7482 11.8459 92.8766 11.7174C93.005 11.589 93.1575 11.4872 93.3254 11.4178C93.4933 11.3484 93.6732 11.3128 93.8548 11.313H105.838C106.019 11.3128 106.199 11.3484 106.367 11.4178C106.535 11.4872 106.687 11.589 106.816 11.7174C106.944 11.8459 107.046 11.9984 107.115 12.1663C107.185 12.3341 107.22 12.514 107.22 12.6956Z" fill="#7B83EB"/>
<path opacity="0.2" d="M98.6176 7.62601H95.9592C96.3081 8.36159 96.8586 8.98306 97.5466 9.41822C98.2347 9.85338 99.0321 10.0844 99.8462 10.0843V8.8547C99.8453 8.52913 99.7155 8.21717 99.4853 7.98696C99.2551 7.75674 98.9431 7.62698 98.6176 7.62601Z" fill="black"/>
<path opacity="0.1" d="M100.768 11.313V22.9916C100.768 23.2695 100.673 23.539 100.498 23.7553C100.324 23.9716 100.081 24.1217 99.8093 24.1806C99.7226 24.2064 99.6324 24.2189 99.542 24.2175H93.0068C92.8861 23.917 92.7845 23.6091 92.7026 23.2958C92.5506 22.693 92.4733 22.0739 92.4722 21.4523V12.6956C92.4719 12.514 92.5075 12.3341 92.5769 12.1663C92.6463 11.9984 92.7482 11.8459 92.8766 11.7174C93.005 11.589 93.1575 11.4872 93.3254 11.4178C93.4933 11.3484 93.6732 11.3128 93.8548 11.313H100.768Z" fill="black"/>
<path opacity="0.2" d="M99.8462 11.313V23.9133C99.8475 24.0038 99.8351 24.0939 99.8093 24.1806C99.7504 24.4522 99.6002 24.6954 99.3839 24.8698C99.1676 25.0442 98.8981 25.1393 98.6202 25.1393H93.4677C93.2903 24.8445 93.1362 24.5363 93.0068 24.2175C92.8861 23.917 92.7845 23.6091 92.7026 23.2958C92.5506 22.693 92.4733 22.0739 92.4722 21.4523V12.6956C92.4719 12.514 92.5075 12.3341 92.5769 12.1663C92.6463 11.9984 92.7482 11.8459 92.8766 11.7174C93.005 11.589 93.1575 11.4872 93.3254 11.4178C93.4933 11.3484 93.6732 11.3128 93.8548 11.313H99.8462Z" fill="black"/>
<path opacity="0.2" d="M99.8462 11.313V22.0698C99.8447 22.3945 99.7151 22.7055 99.4855 22.9351C99.2559 23.1647 98.9449 23.2943 98.6202 23.2958H92.7026C92.5506 22.693 92.4733 22.0739 92.4722 21.4523V12.6956C92.4719 12.514 92.5075 12.3341 92.5769 12.1663C92.6463 11.9984 92.7482 11.8459 92.8766 11.7174C93.005 11.589 93.1575 11.4872 93.3254 11.4178C93.4933 11.3484 93.6732 11.3128 93.8548 11.313H99.8462Z" fill="black"/>
<path opacity="0.2" d="M93.8548 11.313C93.6732 11.3128 93.4933 11.3484 93.3254 11.4178C93.1575 11.4872 93.005 11.589 92.8766 11.7174C92.7482 11.8459 92.6463 11.9984 92.5769 12.1663C92.5075 12.3341 92.4719 12.514 92.4722 12.6956V21.4523C92.4733 22.0739 92.5506 22.693 92.7026 23.2958H97.6985C98.0232 23.2943 98.3342 23.1647 98.5637 22.9351C98.7933 22.7055 98.923 22.3945 98.9244 22.0698V11.313H93.8548Z" fill="black"/>
<path d="M85.4052 7.62601H97.6958C98.0217 7.62601 98.3342 7.75546 98.5646 7.98588C98.7951 8.21631 98.9245 8.52883 98.9245 8.8547V21.1453C98.9245 21.4712 98.7951 21.7837 98.5646 22.0141C98.3342 22.2446 98.0217 22.374 97.6958 22.374H85.4052C85.0793 22.374 84.7668 22.2446 84.5364 22.0141C84.306 21.7837 84.1765 21.4712 84.1765 21.1453V8.8547C84.1765 8.52883 84.306 8.21631 84.5364 7.98588C84.7668 7.75546 85.0793 7.62601 85.4052 7.62601Z" fill="#4B53BC"/>
<path d="M95.219 12.2117H92.4629V19.6042H90.6545V12.2117H87.8818V10.3959H95.219V12.2117Z" fill="white"/>
<defs>
<clipPath id="clip0_401_25115">
<rect width="30" height="30" fill="white"/>
</clipPath>
</defs>
</svg>
